<svg xmlns="http://www.w3.org/2000/svg" xmlns:xlink="http://www.w3.org/1999/xlink" width="191.898" height="57.558" viewBox="0 0 191.898 57.558"><defs><style>.a{fill:#022a39;}.b{fill:url(#a);}.c{fill:url(#b);}.d{fill:#4a1971;mix-blend-mode:soft-light;isolation:isolate;}.e{fill:url(#c);}</style><linearGradient id="a" y1="0.5" x2="1" y2="0.5" gradientUnits="objectBoundingBox"><stop offset="0" stop-color="#f27c00"/><stop offset="0.263" stop-color="#ea5d06"/><stop offset="0.527" stop-color="#e5470b"/><stop offset="0.778" stop-color="#e2390e"/><stop offset="1" stop-color="#e13510"/></linearGradient><linearGradient id="b" y1="0.5" x2="1" y2="0.5" gradientUnits="objectBoundingBox"><stop offset="0" stop-color="#c80040"/><stop offset="0.266" stop-color="#d0004d"/><stop offset="0.656" stop-color="#d8005b"/><stop offset="1" stop-color="#db0060"/></linearGradient><linearGradient id="c" y1="0.5" x2="1" y2="0.5" gradientUnits="objectBoundingBox"><stop offset="0" stop-color="#111e72"/><stop offset="1" stop-color="#7c0e6f"/></linearGradient></defs><g transform="translate(648.238 -344.627)"><g transform="translate(-528.122 349.199)"><path class="a" d="M-334.156,371.5a14.083,14.083,0,0,0-7.356,2.071V356.023h-7.356v46.329h7.356a6.364,6.364,0,0,0,.947-1.566,14.013,14.013,0,0,0,6.409,1.545c8.114,0,14.718-6.915,14.718-15.414S-326.041,371.5-334.156,371.5Zm0,23.477c-4.057,0-7.356-3.616-7.356-8.058s3.3-8.063,7.356-8.063,7.362,3.615,7.362,8.063S-330.1,394.975-334.156,394.975Z" transform="translate(348.868 -356.023)"/></g><g transform="translate(-561.31 349.199)"><path class="a" d="M-416.872,371.5a14.081,14.081,0,0,0-7.356,2.071V356.023h-7.356v46.329h7.356a6.365,6.365,0,0,0,.947-1.566,14.013,14.013,0,0,0,6.409,1.545c8.114,0,14.718-6.915,14.718-15.414S-408.757,371.5-416.872,371.5Zm0,23.477c-4.057,0-7.356-3.616-7.356-8.058s3.3-8.063,7.356-8.063,7.362,3.615,7.362,8.063S-412.814,394.975-416.872,394.975Z" transform="translate(431.584 -356.023)"/></g><g transform="translate(-494.952 349.211)"><rect class="a" width="7.356" height="46.354"/></g><path class="a" d="M-222.976,425.673a13.348,13.348,0,0,1-9.146-3.23,15.623,15.623,0,0,1-4.81-10.29,15.993,15.993,0,0,1,14.364-17.19q.463-.058.919-.092c6.591-.481,10.126,3.27,10.71,7.206.858,5.767-3.975,10.074-8.958,11.2a20.009,20.009,0,0,1-9.693-.111,7.7,7.7,0,0,0,2.212,3.973A6.988,6.988,0,0,0-222,418.516a8.692,8.692,0,0,0,5.955-4l5.959,3.893c-2.642,4.044-7.1,6.873-11.359,7.206Q-222.226,425.673-222.976,425.673Zm-5.5-19.614a12.406,12.406,0,0,0,7.01.274c2.644-.6,3.63-2.236,3.485-3.209-.15-1.012-1.791-1.255-3.15-1.155-.182.013-.361.031-.542.054A9.2,9.2,0,0,0-228.473,406.059Z" transform="translate(-246.255 -30.059)"/><path class="a" d="M-485.5,399.79a14.1,14.1,0,0,0-14.082-14.082,14.035,14.035,0,0,0-10.851,5.108l5.576,4.618a6.806,6.806,0,0,1,5.275-2.484,6.844,6.844,0,0,1,6.835,6.7h-9.548c-7.2,0-11.107,5.075-11.252,10.088-.189,6.384,5.024,10.032,10.277,10.338.323.017.652.028.981.028a16.509,16.509,0,0,0,9.587-3.058V420.2h7.241V399.79Zm-16.789,13.068c-.189,0-.379-.006-.563-.016-2.217-.128-3.51-1.215-3.459-2.9.039-1.409,1.12-3.058,4.016-3.058h8.779A9.492,9.492,0,0,1-502.285,412.858Z" transform="translate(-80.649 -24.598)"/><g transform="translate(-648.238 344.627)"><path class="b" d="M-602.044,396.3a16.58,16.58,0,0,0-4.678-3.278,13.829,13.829,0,0,1-2.858,4.166,13.77,13.77,0,0,1-9.772,4.046h-10.571s-.027,3.3-.027,6.846a11.83,11.83,0,0,1-9.544-6.846h-3.795a4.948,4.948,0,0,1-4.946-4.884c0,.022,0,.043,0,.065v23.116a4.949,4.949,0,0,0,4.949,4.948h13.1s-.033,3.879-.033,6.682a12.014,12.014,0,0,0,10.65-6.682h5.852a16.508,16.508,0,0,0,16.507-16.507A16.476,16.476,0,0,0-602.044,396.3Z" transform="translate(648.238 -373.605)"/><path class="c" d="M-643.289,362.49h29.571a16.445,16.445,0,0,1,7,1.555,13.769,13.769,0,0,0,1.188-5.605,13.814,13.814,0,0,0-13.818-13.813h-23.937a4.949,4.949,0,0,0-4.949,4.949v17.733c0,.022,0,.043,0,.065A4.948,4.948,0,0,1-643.289,362.49Z" transform="translate(648.238 -344.627)"/><path class="d" d="M-643.284,398.915h3.795a11.83,11.83,0,0,0,9.544,6.846c0-3.544.026-6.846.026-6.846h10.571a13.77,13.77,0,0,0,9.772-4.046,13.828,13.828,0,0,0,2.858-4.166,16.446,16.446,0,0,0-7-1.555h-29.571a4.948,4.948,0,0,0-4.946,4.884A4.948,4.948,0,0,0-643.284,398.915Z" transform="translate(648.233 -371.284)"/><path class="e" d="M-643.284,398.915h3.795a11.83,11.83,0,0,0,9.544,6.846c0-3.544.026-6.846.026-6.846h10.571a13.77,13.77,0,0,0,9.772-4.046,13.828,13.828,0,0,0,2.858-4.166,16.446,16.446,0,0,0-7-1.555h-29.571a4.948,4.948,0,0,0-4.946,4.884A4.948,4.948,0,0,0-643.284,398.915Z" transform="translate(648.233 -371.284)"/></g></g></svg>