<svg xmlns="http://www.w3.org/2000/svg" xmlns:xlink="http://www.w3.org/1999/xlink" width="244" height="244" viewBox="0 0 244 244"><defs><style>.a{fill:#fff;stroke:#fff;stroke-width:6px;}.b{fill:url(#c);}.c{fill:url(#d);}.d{fill:#4a1971;mix-blend-mode:soft-light;isolation:isolate;}.e{fill:url(#e);}.f{stroke:none;}.g{fill:none;}.h{filter:url(#a);}</style><filter id="a" x="0" y="0" width="244" height="244" filterUnits="userSpaceOnUse"><feOffset dx="20" dy="20" input="SourceAlpha"/><feGaussianBlur stdDeviation="9" result="b"/><feFlood flood-opacity="0.243"/><feComposite operator="in" in2="b"/><feComposite in="SourceGraphic"/></filter><linearGradient id="c" y1="0.5" x2="1" y2="0.5" gradientUnits="objectBoundingBox"><stop offset="0" stop-color="#f27c00"/><stop offset="0.263" stop-color="#ea5d06"/><stop offset="0.527" stop-color="#e5470b"/><stop offset="0.778" stop-color="#e2390e"/><stop offset="1" stop-color="#e13510"/></linearGradient><linearGradient id="d" y1="0.5" x2="1" y2="0.5" gradientUnits="objectBoundingBox"><stop offset="0" stop-color="#c80040"/><stop offset="0.266" stop-color="#d0004d"/><stop offset="0.656" stop-color="#d8005b"/><stop offset="1" stop-color="#db0060"/></linearGradient><linearGradient id="e" y1="0.5" x2="1" y2="0.5" gradientUnits="objectBoundingBox"><stop offset="0" stop-color="#111e72"/><stop offset="1" stop-color="#7c0e6f"/></linearGradient></defs><g transform="translate(7 7)"><g class="h" transform="matrix(1, 0, 0, 1, -7, -7)"><g class="a" transform="translate(7 7)"><circle class="f" cx="95" cy="95" r="95"/><circle class="g" cx="95" cy="95" r="92"/></g></g><g transform="translate(699.238 -307.627)"><path class="b" d="M-555.022,399.637a33.457,33.457,0,0,0-9.441-6.614,27.907,27.907,0,0,1-5.767,8.408,27.787,27.787,0,0,1-19.719,8.165H-611.28s-.053,6.663-.053,13.814a23.872,23.872,0,0,1-19.26-13.814h-7.658a9.984,9.984,0,0,1-9.98-9.855c0,.044-.006.087-.006.131v46.647a9.987,9.987,0,0,0,9.986,9.986h26.439s-.066,7.829-.066,13.484c6.761-.321,16.075-2.894,21.492-13.484h11.808a33.313,33.313,0,0,0,33.31-33.309A33.247,33.247,0,0,0-555.022,399.637Z" transform="translate(0 -9.212)"/><path class="c" d="M-638.251,380.673h59.673a33.186,33.186,0,0,1,14.117,3.138,27.787,27.787,0,0,0,2.4-11.311,27.876,27.876,0,0,0-27.883-27.873h-48.3a9.987,9.987,0,0,0-9.986,9.986V390.4c0,.045.006.087.006.131A9.984,9.984,0,0,1-638.251,380.673Z" transform="translate(0)"/><path class="d" d="M-638.25,408.857h7.658a23.872,23.872,0,0,0,19.26,13.814c0-7.152.054-13.814.054-13.814h21.331a27.788,27.788,0,0,0,19.719-8.165,27.906,27.906,0,0,0,5.767-8.408,33.185,33.185,0,0,0-14.116-3.138H-638.25A9.984,9.984,0,0,0-648.23,399,9.984,9.984,0,0,0-638.25,408.857Z" transform="translate(-0.002 -8.474)"/><path class="e" d="M-638.25,408.857h7.658a23.872,23.872,0,0,0,19.26,13.814c0-7.152.054-13.814.054-13.814h21.331a27.788,27.788,0,0,0,19.719-8.165,27.906,27.906,0,0,0,5.767-8.408,33.185,33.185,0,0,0-14.116-3.138H-638.25A9.984,9.984,0,0,0-648.23,399,9.984,9.984,0,0,0-638.25,408.857Z" transform="translate(-0.002 -8.474)"/></g><g transform="translate(699.238 -307.627)"><path class="b" d="M-555.022,399.637a33.457,33.457,0,0,0-9.441-6.614,27.907,27.907,0,0,1-5.767,8.408,27.787,27.787,0,0,1-19.719,8.165H-611.28s-.053,6.663-.053,13.814a23.872,23.872,0,0,1-19.26-13.814h-7.658a9.984,9.984,0,0,1-9.98-9.855c0,.044-.006.087-.006.131v46.647a9.987,9.987,0,0,0,9.986,9.986h26.439s-.066,7.829-.066,13.484c6.761-.321,16.075-2.894,21.492-13.484h11.808a33.313,33.313,0,0,0,33.31-33.309A33.247,33.247,0,0,0-555.022,399.637Z" transform="translate(0 -9.212)"/><path class="c" d="M-638.251,380.673h59.673a33.186,33.186,0,0,1,14.117,3.138,27.787,27.787,0,0,0,2.4-11.311,27.876,27.876,0,0,0-27.883-27.873h-48.3a9.987,9.987,0,0,0-9.986,9.986V390.4c0,.045.006.087.006.131A9.984,9.984,0,0,1-638.251,380.673Z" transform="translate(0)"/><path class="d" d="M-638.25,408.857h7.658a23.872,23.872,0,0,0,19.26,13.814c0-7.152.054-13.814.054-13.814h21.331a27.788,27.788,0,0,0,19.719-8.165,27.906,27.906,0,0,0,5.767-8.408,33.185,33.185,0,0,0-14.116-3.138H-638.25A9.984,9.984,0,0,0-648.23,399,9.984,9.984,0,0,0-638.25,408.857Z" transform="translate(-0.002 -8.474)"/><path class="e" d="M-638.25,408.857h7.658a23.872,23.872,0,0,0,19.26,13.814c0-7.152.054-13.814.054-13.814h21.331a27.788,27.788,0,0,0,19.719-8.165,27.906,27.906,0,0,0,5.767-8.408,33.185,33.185,0,0,0-14.116-3.138H-638.25A9.984,9.984,0,0,0-648.23,399,9.984,9.984,0,0,0-638.25,408.857Z" transform="translate(-0.002 -8.474)"/></g></g></svg>