<svg xmlns="http://www.w3.org/2000/svg" xmlns:xlink="http://www.w3.org/1999/xlink" width="283.422" height="85.01" viewBox="0 0 283.422 85.01"><defs><style>.a{fill:#fff;}.b{fill:url(#a);}.c{fill:url(#b);}.d{fill:#4a1971;mix-blend-mode:soft-light;isolation:isolate;}.e{fill:url(#c);}</style><linearGradient id="a" y1="0.5" x2="1" y2="0.5" gradientUnits="objectBoundingBox"><stop offset="0" stop-color="#f27c00"/><stop offset="0.263" stop-color="#ea5d06"/><stop offset="0.527" stop-color="#e5470b"/><stop offset="0.778" stop-color="#e2390e"/><stop offset="1" stop-color="#e13510"/></linearGradient><linearGradient id="b" y1="0.5" x2="1" y2="0.5" gradientUnits="objectBoundingBox"><stop offset="0" stop-color="#c80040"/><stop offset="0.266" stop-color="#d0004d"/><stop offset="0.656" stop-color="#d8005b"/><stop offset="1" stop-color="#db0060"/></linearGradient><linearGradient id="c" y1="0.5" x2="1" y2="0.5" gradientUnits="objectBoundingBox"><stop offset="0" stop-color="#111e72"/><stop offset="1" stop-color="#7c0e6f"/></linearGradient></defs><g transform="translate(648.238 -344.627)"><g transform="translate(-470.833 351.38)"><path class="a" d="M-327.139,378.879A20.8,20.8,0,0,0-338,381.937V356.023h-10.865v68.426H-338a9.4,9.4,0,0,0,1.4-2.313,20.7,20.7,0,0,0,9.466,2.282c11.985,0,21.738-10.213,21.738-22.766S-315.154,378.879-327.139,378.879Zm0,34.675c-5.992,0-10.865-5.34-10.865-11.9s4.872-11.909,10.865-11.909,10.873,5.34,10.873,11.909S-321.146,413.553-327.139,413.553Z" transform="translate(348.868 -356.023)"/></g><g transform="translate(-519.85 351.38)"><path class="a" d="M-409.855,378.879a20.8,20.8,0,0,0-10.865,3.058V356.023h-10.865v68.426h10.865a9.4,9.4,0,0,0,1.4-2.313,20.7,20.7,0,0,0,9.466,2.282c11.985,0,21.738-10.213,21.738-22.766S-397.87,378.879-409.855,378.879Zm0,34.675c-5.992,0-10.865-5.34-10.865-11.9s4.872-11.909,10.865-11.909,10.873,5.34,10.873,11.909S-403.862,413.553-409.855,413.553Z" transform="translate(431.584 -356.023)"/></g><g transform="translate(-421.844 351.397)"><rect class="a" width="10.865" height="68.462"/></g><path class="a" d="M-216.3,440.384a19.714,19.714,0,0,1-13.508-4.771c-6.37-5.63-7.039-13.97-7.1-15.2-.843-13.045,8.072-23.719,21.216-25.389q.684-.086,1.358-.136c9.734-.71,14.955,4.83,15.818,10.642,1.268,8.518-5.871,14.879-13.231,16.541a29.553,29.553,0,0,1-14.316-.164,11.37,11.37,0,0,0,3.267,5.868c1.886,1.64,4.482,2.309,7.943,2.036,2.5-.2,6.324-2.129,8.8-5.912l8.8,5.75c-3.9,5.973-10.489,10.151-16.777,10.643Q-215.194,440.384-216.3,440.384Zm-8.118-28.969a18.323,18.323,0,0,0,10.353.4c3.906-.882,5.361-3.3,5.147-4.739-.222-1.495-2.645-1.854-4.653-1.706-.268.02-.533.046-.8.08A13.594,13.594,0,0,0-224.42,411.415Z" transform="translate(-167.553 -20.453)"/><path class="a" d="M-472.117,406.506a20.821,20.821,0,0,0-20.8-20.8,20.729,20.729,0,0,0-16.027,7.544l8.236,6.82a10.052,10.052,0,0,1,7.791-3.669,10.108,10.108,0,0,1,10.095,9.889h-14.1c-10.629,0-16.4,7.5-16.619,14.9-.28,9.428,7.42,14.817,15.179,15.269.478.025.963.041,1.448.041a24.384,24.384,0,0,0,14.159-4.517v4.665h10.7V406.506Zm-24.8,19.3c-.28,0-.559-.008-.831-.024-3.275-.19-5.183-1.794-5.109-4.279.057-2.081,1.654-4.517,5.932-4.517h12.966A14.019,14.019,0,0,1-496.913,425.807Z" transform="translate(-54.874 -16.737)"/><g transform="translate(-648.238 344.627)"><path class="b" d="M-580.013,397.864a24.488,24.488,0,0,0-6.91-4.841,20.425,20.425,0,0,1-4.221,6.154,20.338,20.338,0,0,1-14.433,5.976h-15.612s-.039,4.876-.039,10.111a17.472,17.472,0,0,1-14.1-10.111h-5.6a7.308,7.308,0,0,1-7.3-7.213c0,.032,0,.063,0,.1v34.141a7.31,7.31,0,0,0,7.309,7.308h19.351s-.048,5.73-.048,9.869c4.948-.235,11.765-2.118,15.73-9.869h8.642a24.382,24.382,0,0,0,24.379-24.379A24.334,24.334,0,0,0-580.013,397.864Z" transform="translate(648.238 -364.344)"/><path class="c" d="M-640.929,371.009h43.675a24.288,24.288,0,0,1,10.332,2.3,20.337,20.337,0,0,0,1.754-8.279,20.4,20.4,0,0,0-20.408-20.4h-35.353a7.31,7.31,0,0,0-7.309,7.309v26.19c0,.033,0,.063,0,.1A7.308,7.308,0,0,1-640.929,371.009Z" transform="translate(648.238 -344.627)"/><path class="d" d="M-640.926,403.573h5.6a17.472,17.472,0,0,0,14.1,10.111c0-5.234.039-10.111.039-10.111h15.612A20.337,20.337,0,0,0-591.14,397.6a20.422,20.422,0,0,0,4.221-6.154,24.288,24.288,0,0,0-10.332-2.3h-43.675a7.308,7.308,0,0,0-7.3,7.213A7.308,7.308,0,0,0-640.926,403.573Z" transform="translate(648.235 -362.765)"/><path class="e" d="M-640.926,403.573h5.6a17.472,17.472,0,0,0,14.1,10.111c0-5.234.039-10.111.039-10.111h15.612A20.337,20.337,0,0,0-591.14,397.6a20.422,20.422,0,0,0,4.221-6.154,24.288,24.288,0,0,0-10.332-2.3h-43.675a7.308,7.308,0,0,0-7.3,7.213A7.308,7.308,0,0,0-640.926,403.573Z" transform="translate(648.235 -362.765)"/></g></g></svg>