<svg xmlns="http://www.w3.org/2000/svg" xmlns:xlink="http://www.w3.org/1999/xlink" width="450.099" height="294.567" viewBox="0 0 450.099 294.567"><defs><style>.a{fill:url(#a);}.b{fill:url(#b);}.c{fill:url(#c);}</style><linearGradient id="a" y1="0.5" x2="1" y2="0.5" gradientUnits="objectBoundingBox"><stop offset="0" stop-color="#f27c00"/><stop offset="0.263" stop-color="#ea5d06"/><stop offset="0.527" stop-color="#e5470b"/><stop offset="0.778" stop-color="#e2390e"/><stop offset="1" stop-color="#e13510"/></linearGradient><linearGradient id="b" y1="0.5" x2="1" y2="0.5" gradientUnits="objectBoundingBox"><stop offset="0" stop-color="#c80040"/><stop offset="0.266" stop-color="#d0004d"/><stop offset="0.656" stop-color="#d8005b"/><stop offset="1" stop-color="#db0060"/></linearGradient><linearGradient id="c" y1="0.5" x2="1" y2="0.5" gradientUnits="objectBoundingBox"><stop offset="0" stop-color="#111e72"/><stop offset="1" stop-color="#7c0e6f"/></linearGradient></defs><g transform="translate(-311.269 203.928) rotate(-30)"><g transform="translate(240.398 105.594)"><path class="a" d="M618.755,169.79a135.789,135.789,0,0,0-41.142-28.069,113.027,113.027,0,0,1-72.058,56.813c-.644.813,56.651,32.707,117.634,67.916l27.136-47A135.29,135.29,0,0,0,618.755,169.79Z" transform="translate(-240.398 24.297)"/><path class="b" d="M387.2,260.1H522.682a134.683,134.683,0,0,1,54.474,11.516A113.108,113.108,0,0,0,477.119,105.594H357.468c-20.218,35.018-59.294,102.495-59.467,103C297.836,208.684,387.2,260.1,387.2,260.1Z" transform="translate(-239.941 -105.594)"/></g><path class="c" d="M557.015,177.885a113.372,113.372,0,0,0,20-27.154,134.682,134.682,0,0,0-54.474-11.516H386.957c-.522.956,98.807,57.292,118.052,68.317A112.673,112.673,0,0,0,557.015,177.885Z" transform="translate(0.593 120.881)"/></g></svg>