<svg xmlns="http://www.w3.org/2000/svg" xmlns:xlink="http://www.w3.org/1999/xlink" width="443.518" height="443.518" viewBox="0 0 443.518 443.518"><defs><style>.a{fill:url(#a);}.b{fill:url(#b);}.c{fill:url(#c);}</style><linearGradient id="a" y1="0.5" x2="1" y2="0.5" gradientUnits="objectBoundingBox"><stop offset="0" stop-color="#f27c00"/><stop offset="0.263" stop-color="#ea5d06"/><stop offset="0.527" stop-color="#e5470b"/><stop offset="0.778" stop-color="#e2390e"/><stop offset="1" stop-color="#e13510"/></linearGradient><linearGradient id="b" y1="0.5" x2="1" y2="0.5" gradientUnits="objectBoundingBox"><stop offset="0" stop-color="#c80040"/><stop offset="0.266" stop-color="#d0004d"/><stop offset="0.656" stop-color="#d8005b"/><stop offset="1" stop-color="#db0060"/></linearGradient><linearGradient id="c" y1="0.5" x2="1" y2="0.5" gradientUnits="objectBoundingBox"><stop offset="0" stop-color="#111e72"/><stop offset="1" stop-color="#7c0e6f"/></linearGradient></defs><g transform="translate(189.664 -365.972) rotate(45)"><g transform="translate(240.398 105.594)"><path class="a" d="M577.118,166.7a120.846,120.846,0,0,0-36.615-24.98,100.532,100.532,0,0,1-89.028,53.657H425.893s-103.834,103.4-161.662,161.229c-.179.31,2,2,15.511,15.511h92.23s-.237,28.28-.237,48.708c24.424-1.161,58.069-10.453,77.634-48.708h42.655A120.341,120.341,0,0,0,577.118,166.7Z" transform="translate(-240.398 6.027)"/><path class="b" d="M489.062,243.093h2.57a119.861,119.861,0,0,1,48.479,10.249,100.969,100.969,0,0,0,10.088-29.13c-6.415-6.415-20.553-21.482-21.128-21.128S489.062,243.093,489.062,243.093Z" transform="translate(-240.005 -105.594)"/></g><path class="c" d="M522.191,173.63a100.9,100.9,0,0,0,17.8-24.166,119.861,119.861,0,0,0-48.479-10.249h-2.62c-30.042,30.042-43.769,44.249-63.426,63.905h25.5A100.364,100.364,0,0,0,522.191,173.63Z" transform="translate(0.51 103.878)"/></g></svg>